<?xml version="1.0" encoding="UTF-8" standalone="no"?>
<svg
   xmlns:dc="http://purl.org/dc/elements/1.1/"
   xmlns:cc="http://creativecommons.org/ns#"
   xmlns:rdf="http://www.w3.org/1999/02/22-rdf-syntax-ns#"
   xmlns:svg="http://www.w3.org/2000/svg"
   xmlns="http://www.w3.org/2000/svg"
   xmlns:sodipodi="http://sodipodi.sourceforge.net/DTD/sodipodi-0.dtd"
   xmlns:inkscape="http://www.inkscape.org/namespaces/inkscape"
   id="svg2"
   height="192"
   width="192"
   version="1.1"
   inkscape:version="0.48.5 r10040"
   sodipodi:docname="undefined.svg"
   inkscape:export-filename="C:\Users\Stuart\Documents\GitHub\reshotput\static\icons\undefined.png"
   inkscape:export-xdpi="90"
   inkscape:export-ydpi="90">
  <metadata
     id="metadata9">
    <rdf:RDF>
      <cc:Work
         rdf:about="">
        <dc:format>image/svg+xml</dc:format>
        <dc:type
           rdf:resource="http://purl.org/dc/dcmitype/StillImage" />
        <dc:title></dc:title>
      </cc:Work>
    </rdf:RDF>
  </metadata>
  <defs
     id="defs72">
    <clipPath
       clipPathUnits="userSpaceOnUse"
       id="clipPath3027">
      <path
         sodipodi:type="arc"
         style="fill:#000000;fill-opacity:1;stroke:none"
         id="path3029"
         sodipodi:cx="9.5"
         sodipodi:cy="9.5"
         sodipodi:rx="9.5"
         sodipodi:ry="9.5"
         d="M 0.24959878,11.663349 A 9.5,9.5 0 1 1 18.772386,11.567089 L 9.5,9.5 z"
         sodipodi:start="2.9118562"
         sodipodi:end="6.5025282" />
    </clipPath>
  </defs>
  <sodipodi:namedview
     pagecolor="#ffffff"
     bordercolor="#666666"
     borderopacity="1"
     objecttolerance="10"
     gridtolerance="10"
     guidetolerance="10"
     inkscape:pageopacity="0"
     inkscape:pageshadow="2"
     inkscape:window-width="1680"
     inkscape:window-height="987"
     id="namedview70"
     showgrid="false"
     fit-margin-top="0"
     fit-margin-left="0"
     fit-margin-right="0"
     fit-margin-bottom="0"
     inkscape:snap-page="true"
     inkscape:snap-bbox="true"
     showborder="false"
     inkscape:showpageshadow="false"
     inkscape:zoom="4.0104167"
     inkscape:cx="96"
     inkscape:cy="96"
     inkscape:window-x="-8"
     inkscape:window-y="-8"
     inkscape:window-maximized="1"
     inkscape:current-layer="svg2"
     inkscape:snap-center="true"
     inkscape:snap-object-midpoints="false"
     inkscape:snap-bbox-midpoints="true"
     inkscape:bbox-paths="false">
    <inkscape:grid
       type="xygrid"
       id="grid3754"
       empspacing="4"
       visible="true"
       enabled="true"
       snapvisiblegridlinesonly="true"
       spacingx="12px"
       spacingy="12px" />
  </sodipodi:namedview>
  <path
     style="fill:#b3b3b3;fill-opacity:1;stroke:none"
     d="M 96 0 C 66.176624 5.9952043e-015 42 24.176624 42 54 C 42 56.026627 42.12628 58.031339 42.34375 60 L 66.625 60 C 66.229361 58.056388 66 56.060441 66 54 C 66 37.431458 79.431458 24 96 24 C 112.56854 24 126 37.431458 126 54 C 126 70.568542 112.56854 84 96 84 L 84 84 L 84 106.65625 L 84 144 L 108 144 L 108 106.65625 C 132.0441 101.19673 150 79.696375 150 54 C 150 24.176624 125.82338 -1.2099118e-014 96 0 z "
     id="path3792" />
  <path
     sodipodi:type="arc"
     style="fill:#b3b3b3;fill-opacity:1;stroke:none"
     id="path3815"
     sodipodi:cx="96"
     sodipodi:cy="174"
     sodipodi:rx="18"
     sodipodi:ry="18"
     d="m 114,174 a 18,18 0 1 1 -36,0 18,18 0 1 1 36,0 z" />
</svg>
